<?xml version="1.0" encoding="UTF-8"?>
<svg width="8px" height="8px" viewBox="0 0 8 8" version="1.1" xmlns="http://www.w3.org/2000/svg" xmlns:xlink="http://www.w3.org/1999/xlink">
    <g id="页面-1" stroke="none" stroke-width="1" fill="none" fill-rule="evenodd">
        <g id="已选" transform="translate(-215.000000, -32.000000)" fill-rule="nonzero">
            <g id="删除" transform="translate(215.000000, 32.000000)">
                <rect id="Rectangle-path" fill="currentColor" opacity="0" x="0" y="0" width="8" height="8"></rect>
                <path d="M6.49993334,8 L1.50993334,8 C1.23379096,8 1.00993334,7.77614237 1.00993334,7.5 L1.00993334,2.06666666 L1.00993334,2.06666666 L6.99993334,2.06666666 L6.99993334,7.5 C6.99993334,7.77614237 6.77607571,8 6.49993334,8 Z M-1.9190427e-11,2.56666666 C-1.91904608e-11,2.29052429 0.223857625,2.06666666 0.5,2.06666666 L7.5,2.06666666 C7.77614237,2.06666666 8,2.29052429 8,2.56666666 C8,2.84280904 7.77614237,3.06666666 7.5,3.06666666 L0.5,3.06666666 C0.223857625,3.06666666 -1.91903932e-11,2.84280904 -1.9190427e-11,2.56666666 Z M5.5,1 L2.5,1 C2.22385763,1 2,0.776142375 2,0.5 C2,0.223857625 2.22385763,-1.93262551e-12 2.5,-1.93267624e-12 L5.5,-1.93267624e-12 C5.77614237,-1.93272697e-12 6,0.223857625 6,0.5 C6,0.776142375 5.77614237,1 5.5,1 Z" id="形状" fill="currentColor"></path>
            </g>
        </g>
    </g>
</svg>