<?xml version="1.0" encoding="UTF-8"?>
<svg width="16px" height="16px" viewBox="0 0 16 16" version="1.1" xmlns="http://www.w3.org/2000/svg" xmlns:xlink="http://www.w3.org/1999/xlink">
    <g id="页面-1" stroke="none" stroke-width="1" fill="currentColor" fill-rule="evenodd">
        <g id="对比" transform="translate(-16.000000, -116.000000)" fill-rule="nonzero">
            <g id="曲线" transform="translate(16.000000, 116.000000)">
                <rect id="矩形" fill="currentColor" opacity="0" x="0" y="0" width="16" height="16"></rect>
                <path d="M3.26394176,12.3941176 C2.9255767,12.3941176 2.7,12.1823529 2.7,11.8647059 C2.81278835,10.3823529 3.26394176,3.5 6.08365054,3.5 C7.66268746,3.5 8.33941757,5.40588235 9.24172438,7.41764706 C10.0312428,9.21764706 10.8207613,11.3352941 12.1742215,11.3352941 C13.7532584,11.3352941 14.2044118,9.53529412 14.5427769,7.62941176 L14.5427769,7.31176471 C14.5427769,6.99411765 14.881142,6.78235294 15.219507,6.88823529 C15.5578721,6.88823529 15.7834488,7.20588235 15.6706604,7.52352941 L15.6706604,7.84117647 C15.4450837,9.21764706 15.1067187,12.5 12.2870099,12.5 C10.2568195,12.5 9.24172438,10.0647059 8.33941757,7.84117647 C7.54989911,6.25294118 6.873169,4.55882353 6.08365054,4.55882353 C4.84297868,4.55882353 3.94067187,8.79411765 3.82788351,11.8647059 C3.82788351,12.1823529 3.60230681,12.3941176 3.26394176,12.3941176 Z" id="路径" fill="currentColor"></path>
                <polygon id="路径-4" fill="currentColor" points="1 0 1 14.824 16 14.824707 16 15.824707 0 15.824707 0 0"></polygon>
            </g>
        </g>
    </g>
</svg>