<?xml version="1.0" encoding="UTF-8"?>
<svg width="20px" height="20px" viewBox="0 0 20 20" version="1.1" xmlns="http://www.w3.org/2000/svg" xmlns:xlink="http://www.w3.org/1999/xlink">
    <g id="页面-1" stroke="none" stroke-width="1" fill="none" fill-rule="evenodd">
        <g id="对比" transform="translate(-657.000000, -70.000000)" fill-rule="nonzero">
            <g id="编组" transform="translate(657.000000, 69.500000)">
                <g id="图向左" transform="translate(0.000000, 0.500000)">
                    <rect id="矩形" fill="#000000" opacity="0" x="0" y="0" width="20" height="20"></rect>
                    <path d="M17,3 C17.5522847,3 18,3.44771525 18,4 L18,4 L18,16 C18,16.5522847 17.5522847,17 17,17 L17,17 L12,17 C11.4477153,17 11,16.5522847 11,16 L11,16 L11,4 C11,3.44771525 11.4477153,3 12,3 L12,3 Z M5.3654115,7.68885319 C5.42780605,7.77441185 5.46142578,7.87757083 5.46142578,7.98346402 L5.46065747,9.249 L7.01403809,9.25 L7.01403809,10.75 L5.46065747,10.749 L5.46142578,12.0402143 C5.46142578,12.3163567 5.23756816,12.5402143 4.96142578,12.5402143 C4.85891866,12.5402143 4.75888843,12.508708 4.67488414,12.4499628 L1.83515895,10.464112 C1.60886107,10.3058594 1.55369945,9.99411969 1.71195203,9.76782181 C1.74358542,9.72258672 1.78249089,9.68290194 1.82708977,9.65037774 L4.66681495,7.5794783 C4.8899301,7.41676923 5.20270243,7.46573804 5.3654115,7.68885319 Z M10,9.25 L10,10.75 L8.07678223,10.75 L8.07678223,9.25 L10,9.25 Z" id="形状结合" fill="currentColor"></path>
                </g>
            </g>
        </g>
    </g>
</svg>