<svg t="1657771519050" class="icon" viewBox="0 0 1024 1024" version="1.1" xmlns="http://www.w3.org/2000/svg" p-id="5360" width="200" height="200"><path d="M454.4 170.666667h113.066667c8.533333 0 14.933333 2.133333 19.2 8.533333s8.533333 12.8 8.533333 19.2v198.4h138.666667c8.533333 0 12.8 2.133333 14.933333 6.4 2.133333 4.266667 0 8.533333-4.266667 14.933333l-217.6 243.2c-4.266667 6.4-10.666667 8.533333-19.2 8.533334s-12.8-2.133333-19.2-8.533334l-215.466666-243.2c-4.266667-6.4-6.4-10.666667-4.266667-14.933333s6.4-6.4 14.933333-6.4h142.933334v-198.4c0-8.533333 2.133333-14.933333 8.533333-19.2 4.266667-6.4 12.8-8.533333 19.2-8.533333z m-226.133333 512h569.6c8.533333 0 14.933333 2.133333 19.2 8.533333 6.4 6.4 8.533333 12.8 8.533333 19.2v142.933333h-625.066667v-142.933333c0-8.533333 2.133333-14.933333 8.533334-19.2 4.266667-6.4 10.666667-8.533333 19.2-8.533333z m482.133333 57.6v27.733333h57.6v-27.733333h-57.6z" p-id="5361"></path></svg>