<?xml version="1.0" encoding="UTF-8"?>
<svg width="16px" height="16px" viewBox="0 0 16 16" version="1.1" xmlns="http://www.w3.org/2000/svg" xmlns:xlink="http://www.w3.org/1999/xlink">
    <g id="页面-1" stroke="none" stroke-width="1" fill="none" fill-rule="evenodd">
        <g id="文件-列表" transform="translate(-1340.000000, -124.000000)" fill-rule="nonzero">
            <g id="列表展示" transform="translate(1340.000000, 124.000000)">
                <rect id="矩形" fill="#000000" opacity="0" x="0" y="0" width="16" height="16"></rect>
                <path d="M1.0078125,1.0078125 L4.234375,1.0078125 L4.234375,4.234375 L1.0078125,4.234375 L1.0078125,1.0078125 Z M6.3859375,1.0078125 L14.9921875,1.0078125 L14.9921875,4.234375 L6.3859375,4.234375 L6.3859375,1.0078125 Z M1.0078125,6.3859375 L4.234375,6.3859375 L4.234375,9.6125 L1.0078125,9.6125 L1.0078125,6.3859375 Z M6.3859375,6.3859375 L14.9921875,6.3859375 L14.9921875,9.6125 L6.3859375,9.6125 L6.3859375,6.3859375 Z M1.0078125,11.765625 L4.234375,11.765625 L4.234375,14.9921875 L1.0078125,14.9921875 L1.0078125,11.765625 Z M6.3859375,11.765625 L14.9921875,11.765625 L14.9921875,14.9921875 L6.3859375,14.9921875 L6.3859375,11.765625 Z" id="形状" fill="#CECED1"></path>
            </g>
        </g>
    </g>
</svg>