<svg t="1648199448092" class="icon" viewBox="0 0 1024 1024" version="1.1" xmlns="http://www.w3.org/2000/svg" p-id="2039" width="200" height="200"><path d="M607.394 139.049c39.655 0 71.792 32.137 71.792 71.792V813.18c0 39.654-32.158 71.792-71.792 71.792a71.97 71.97 0 0 1-39.464-11.824L114.328 574.723c-6.842-4.477-12.859-10.136-17.8-16.66l-2.386-3.357-1.974-3.104c-19.617-32.792-10.094-75.213 21.653-96.487L567.465 151.19a71.795 71.795 0 0 1 39.95-12.163l-0.021 0.022z m251.527 0.126c21.009 0 38.007 17.02 38.007 38.008v667.142c0 20.989-16.998 38.008-38.007 38.008-20.989 0-38.008-17.019-38.008-38.008V177.183c0-20.988 17.019-38.008 38.008-38.008z m-255.75 79.563L161.426 514.713l441.745 290.633V218.738z" fill="currentColor" p-id="2040"></path></svg>