<?xml version="1.0" encoding="UTF-8"?>
<svg width="20px" height="20px" viewBox="0 0 20 20" version="1.1" xmlns="http://www.w3.org/2000/svg" xmlns:xlink="http://www.w3.org/1999/xlink">
    <g id="页面-1" stroke="none" stroke-width="1" fill="none" fill-rule="evenodd">
        <g id="对比" transform="translate(-1269.000000, -70.000000)" fill-rule="nonzero">
            <g id="全屏" transform="translate(1269.000000, 70.000000)">
                <rect id="矩形" fill="#000000" opacity="0" x="0" y="0" width="20" height="20"></rect>
                <path d="M19.242713,14.6787504 L19.242713,18.1787504 L15.742713,18.1787504 L15.742713,16.6787504 L17.742,16.6795008 L17.742713,14.6787504 L19.242713,14.6787504 Z M2.24271299,14.6787504 L2.24342598,16.6795008 L4.24271299,16.6787504 L4.24271299,18.1787504 L0.742712991,18.1787504 L0.742712991,14.6787504 L2.24271299,14.6787504 Z M15,5 C15.5522847,5 16,5.44771525 16,6 L16,14 C16,14.5522847 15.5522847,15 15,15 L5,15 C4.44771525,15 4,14.5522847 4,14 L4,6 C4,5.44771525 4.44771525,5 5,5 L15,5 Z M14.5,6.5 L5.5,6.5 L5.5,13.5 L14.5,13.5 L14.5,6.5 Z M19.2543724,1.81844222 L19.2543724,5.31844222 L17.7543724,5.31844222 L17.754,3.318 L15.7543724,3.31844222 L15.7543724,1.81844222 L19.2543724,1.81844222 Z M4.25437241,1.81844222 L4.25437241,3.31844222 L2.25474481,3.318 L2.25437241,5.31844222 L0.754372405,5.31844222 L0.754372405,1.81844222 L4.25437241,1.81844222 Z" id="形状结合" fill="currentColor"></path>
            </g>
        </g>
    </g>
</svg>