<?xml version="1.0" encoding="UTF-8"?>
<svg width="16px" height="16px" viewBox="0 0 16 16" version="1.1" xmlns="http://www.w3.org/2000/svg" xmlns:xlink="http://www.w3.org/1999/xlink">
    <g id="页面-1" stroke="none" stroke-width="1" fill="none" fill-rule="evenodd">
        <g id="文件-缩略图" transform="translate(-573.000000, -66.000000)" fill-rule="nonzero">
            <g id="导航/标签页/默认备份" transform="translate(264.000000, 56.000000)">
                <g id="导航/Tabs标签页/亮色/带图标-选中备份-3" transform="translate(285.000000, 0.000000)">
                    <g id="GIF" transform="translate(24.000000, 10.000000)">
                        <rect id="矩形" fill="currentColor" opacity="0" x="0" y="0" width="16" height="16"></rect>
                        <g id="编组-7" transform="translate(2.000000, 2.000000)" fill="currentColor">
                            <path d="M8.0988409,1.77635684e-15 C8.33586719,-0.000364037192 8.56531726,0.0834758196 8.74627077,0.236568677 L11.645889,2.68974488 C11.8704714,2.87974923 12,3.15900127 12,3.4531762 L12,11.9994355 C12,12.5517202 11.5522847,12.9994355 11,12.9994355 L1,12.9994355 C0.44771525,12.9994355 0,12.5517202 0,11.9994355 L0,1.01094073 C0,0.459257627 0.446776691,0.0117919832 0.998459137,0.0109419152 L8.0988409,1.77635684e-15 Z M7.917,1.49915409 L1.499,1.50915409 L1.499,11.4991541 L10.499,11.4991541 L10.499,3.68315409 L7.917,1.49915409 Z" id="Rectangle-Copy-4"></path>
                            <path d="M9.77869601,5.09949947 L7.71002974,5.09949947 C7.67136308,5.09949947 7.63972672,5.13164948 7.63972672,5.17094394 L7.63972672,8.79675049 C7.63972672,8.83604495 7.67136308,8.86819496 7.71002974,8.86819496 L8.23027206,8.86819496 C8.26893872,8.86819496 8.30057508,8.83604495 8.30057508,8.79675049 L8.30057508,7.34017648 L9.77869601,7.34017648 C9.81736267,7.34017648 9.84899902,7.30802647 9.84899902,7.26873202 L9.84899902,6.84988885 C9.84899902,6.81059439 9.81736267,6.77844438 9.77869601,6.77844438 L8.30057508,6.77844438 L8.30057508,5.68177186 L9.77869601,5.68177186 C9.81736267,5.68177186 9.84899902,5.64962185 9.84899902,5.61032739 L9.84899902,5.17094394 C9.84899902,5.13164948 9.81736267,5.09949947 9.77869601,5.09949947 Z M6.88650165,5.10843003 L6.39438053,5.10843003 C6.35571387,5.10843003 6.32407751,5.14058004 6.32407751,5.1798745 L6.32407751,8.80568105 C6.32407751,8.84497551 6.35571387,8.87712552 6.39438053,8.87712552 L6.88650165,8.87712552 C6.9251683,8.87712552 6.95680466,8.84497551 6.95680466,8.80568105 L6.95680466,5.1798745 C6.95680466,5.14058004 6.9251683,5.10843003 6.88650165,5.10843003 Z M5.56006808,6.90257914 L4.14082592,6.90257914 C4.10215927,6.90257914 4.07052291,6.93472915 4.07052291,6.9740236 L4.07052291,7.36428899 C4.07052291,7.40358344 4.10215927,7.43573345 4.14082592,7.43573345 L4.97479546,7.43573345 L4.9721591,7.51521542 C4.96161365,8.04033223 4.5714319,8.39487538 3.99758353,8.39487538 C3.32794729,8.39487538 2.90876555,7.86172107 2.90876555,6.99545694 C2.90876555,6.13990948 3.3200382,5.60943434 3.97649262,5.60943434 C4.45806829,5.60943434 4.79464398,5.84966635 4.92997729,6.28279841 L5.59961352,6.28279841 C5.4800984,5.50405375 4.84385609,5.00212241 3.97649262,5.00212241 C2.90612919,5.00126334 2.22067478,5.780008 2.22067478,7.00081528 C2.22067478,8.23591145 2.8982201,9.00212241 3.98703808,9.00212241 C4.98973485,9.00212241 5.63037109,8.37076288 5.63037109,7.38036399 L5.63037109,6.9740236 C5.63037109,6.93472915 5.59873474,6.90257914 5.56006808,6.90257914 Z" id="形状" stroke="#707078" stroke-width="0.2"></path>
                        </g>
                    </g>
                </g>
            </g>
        </g>
    </g>
</svg>