<?xml version="1.0" standalone="no"?><!DOCTYPE svg PUBLIC "-//W3C//DTD SVG 1.1//EN" "http://www.w3.org/Graphics/SVG/1.1/DTD/svg11.dtd"><svg t="1633935472767" class="icon" viewBox="0 0 1024 1024" version="1.1" xmlns="http://www.w3.org/2000/svg" p-id="4219" xmlns:xlink="http://www.w3.org/1999/xlink" width="200" height="200"><defs><style type="text/css"></style></defs><path d="M532.48 256v256c0 7.168-3.072 13.312-8.192 16.384l-131.072 92.16c-4.096 3.072-8.192 4.096-12.288 4.096-6.144 0-12.288-3.072-16.384-8.192-6.144-9.216-4.096-22.528 5.12-28.672L491.52 501.76V256c0-11.264 9.216-20.48 20.48-20.48s20.48 9.216 20.48 20.48z m269.312-102.4H952.32c11.264 0 20.48-9.216 20.48-20.48s-9.216-20.48-20.48-20.48H747.52c-11.264 0-20.48 9.216-20.48 20.48v204.8c0 11.264 9.216 20.48 20.48 20.48s20.48-9.216 20.48-20.48V179.2C871.424 258.048 931.84 380.928 931.84 512c0 231.424-188.416 419.84-419.84 419.84S92.16 743.424 92.16 512 280.576 92.16 512 92.16c11.264 0 20.48-9.216 20.48-20.48s-9.216-20.48-20.48-20.48C258.048 51.2 51.2 258.048 51.2 512s206.848 460.8 460.8 460.8 460.8-206.848 460.8-460.8c0-139.264-63.488-271.36-171.008-358.4z" p-id="4220"></path></svg>