<?xml version="1.0" encoding="UTF-8"?>
<svg width="20px" height="21px" viewBox="0 0 20 21" version="1.1" xmlns="http://www.w3.org/2000/svg" xmlns:xlink="http://www.w3.org/1999/xlink">
    <g id="页面-1" stroke="none" stroke-width="1" fill="none" fill-rule="evenodd">
        <g id="对比" transform="translate(-1138.000000, -70.000000)" fill-rule="nonzero">
            <g id="水平翻转" transform="translate(1138.000000, 70.000000)">
                <rect id="矩形" fill="#000000" opacity="0" x="0" y="0.5" width="20" height="20"></rect>
                <path d="M10.8950195,16.5346298 L10.8950195,18.5346298 L9.39501953,18.5346298 L9.39501953,16.5346298 L10.8950195,16.5346298 Z M2.53530123,6.06640845 C2.69301119,5.83973207 3.00461788,5.78382374 3.23129426,5.9415337 L3.23129426,5.9415337 L9.1805257,10.080708 C9.23192192,10.1164669 9.2761446,10.161561 9.31089389,10.2136452 C9.46415112,10.4433555 9.40217364,10.753812 9.17246332,10.9070693 L9.17246332,10.9070693 L3.22323189,14.8762541 C3.14106748,14.9310723 3.04450767,14.9603268 2.94573512,14.9603268 C2.66959275,14.9603268 2.44573512,14.7364692 2.44573512,14.4603268 L2.44573512,14.4603268 L2.44573512,6.35196759 C2.44573512,6.24986917 2.47699096,6.15021775 2.53530123,6.06640845 Z M17.9471986,6.08114768 C18.0089756,6.16645345 18.0422363,6.26908917 18.0422363,6.37441476 L18.0422363,14.4390215 C18.0422363,14.7151639 17.8183787,14.9390215 17.5422363,14.9390215 C17.4402882,14.9390215 17.3407761,14.9078575 17.2570389,14.8497068 L11.5722394,10.9019395 C11.3454241,10.7444294 11.2892413,10.4328721 11.4467514,10.2060568 C11.4788682,10.1598086 11.518566,10.1193174 11.5641697,10.086292 L17.2489693,5.96945251 C17.4726237,5.80748558 17.7852316,5.85749321 17.9471986,6.08114768 Z M10.8950195,12.5346298 L10.8950195,14.5346298 L9.39501953,14.5346298 L9.39501953,12.5346298 L10.8950195,12.5346298 Z M3.94575465,8.26562982 L3.94575465,12.5906298 L7.11975465,10.4736298 L3.94575465,8.26562982 Z M10.8950195,6.53462982 L10.8950195,8.53462982 L9.39501953,8.53462982 L9.39501953,6.53462982 L10.8950195,6.53462982 Z M10.8950195,2.53462982 L10.8950195,4.53462982 L9.39501953,4.53462982 L9.39501953,2.53462982 L10.8950195,2.53462982 Z" id="形状结合" fill="currentColor"></path>
            </g>
        </g>
    </g>
</svg>