<?xml version="1.0" encoding="UTF-8"?>
<svg width="120px" height="28px" viewBox="0 0 120 28" version="1.1" xmlns="http://www.w3.org/2000/svg" xmlns:xlink="http://www.w3.org/1999/xlink">
    <g id="页面-1" stroke="none" stroke-width="1" fill="none" fill-rule="evenodd">
        <g id="文件-缩略图" transform="translate(-20.000000, -14.000000)">
            <g id="logo" transform="translate(20.000000, 14.000000)">
                <path d="M27.2787312,21 L27.80612,15.0504775 L32.5424911,15.0504775 L32.7524308,12.6821282 L28.0160597,12.6821282 L28.3098059,9.36834925 L33.7900603,9.36834925 L34,7 L26.2410144,7 L25,21 L27.2787312,21 Z M36.6598811,21 L37.1690676,15.1555252 L37.6318004,15.1555252 C38.1500611,15.1555252 38.5218411,15.2080491 38.7471404,15.3130969 C38.9724396,15.4181446 39.1779113,15.6091405 39.3635554,15.8860846 C39.5491995,16.1630286 39.8871068,16.8522055 40.3772772,17.9536153 L41.7406875,21 L44.4152832,21 L43.3020565,18.2687585 C42.8545198,17.1737153 42.491865,16.4145066 42.2140922,15.9911323 C41.9363194,15.5677581 41.5723427,15.1778081 41.122162,14.8212824 C42.0749433,14.6493861 42.8349571,14.2291951 43.4022035,13.5607094 C43.9694499,12.8922237 44.3007746,12.0104593 44.3961777,10.9154161 C44.4716128,10.049568 44.3697866,9.30627558 44.0906992,8.68553888 C43.8116118,8.06480218 43.4238925,7.62869486 42.9275412,7.37721692 C42.4311899,7.12573897 41.5783766,7 40.3691015,7 L35.6399721,7 L34.4202543,21 L36.6598811,21 Z M37,12 L37.2626186,9 L38.8269347,9.00007242 C39.6369901,9.00171385 40.1259573,9.0312596 40.2938365,9.08870968 C40.5375917,9.17473118 40.7227597,9.33198925 40.8493406,9.56048387 C40.9759214,9.78897849 41.0227394,10.0913978 40.9897944,10.4677419 C40.9554375,10.8602151 40.8546133,11.1747312 40.6873218,11.4112903 C40.5200304,11.6478495 40.3151824,11.8051075 40.072778,11.8830645 C39.8303736,11.9610215 39.2772745,12 38.4134807,12 L37,12 Z M54.1821289,21 L54.3990237,18.6412005 L47.8352099,18.6412005 L48.1855783,14.8308322 L54.0851967,14.8308322 L54.3020914,12.4720327 L48.4024731,12.4720327 L48.6878609,9.36834925 L55.0367879,9.36834925 L55.2545608,7 L46.5418794,7 L45.2545608,21 L54.1821289,21 Z M64.1525879,21 L64.3694826,18.6412005 L57.8056689,18.6412005 L58.1560373,14.8308322 L64.0556556,14.8308322 L64.2725504,12.4720327 L58.3729321,12.4720327 L58.6583199,9.36834925 L65.0072469,9.36834925 L65.2250198,7 L56.5123384,7 L55.2250198,21 L64.1525879,21 Z M71.2922711,21 C72.9665009,21 74.2361938,20.6000879 75.1013497,19.8002637 C75.9665056,19.0004395 76.4565803,18.0129642 76.5715739,16.8378378 C76.6510459,16.0257086 76.5746434,15.3350912 76.3423665,14.7659855 C76.1100896,14.1968798 75.7386619,13.7323665 75.2280835,13.3724456 C74.7175051,13.0125247 73.8654024,12.6695232 72.6717754,12.343441 C71.5427093,12.0419688 70.8297924,11.7651066 70.5330247,11.5128543 C70.2362571,11.2606021 70.1059351,10.9499011 70.1420587,10.5807515 C70.1787844,10.2054494 70.3869579,9.89167216 70.7665791,9.63941991 C71.1462003,9.38716766 71.6641599,9.26104153 72.3204581,9.26104153 C72.9767562,9.26104153 73.4682251,9.40562514 73.794865,9.69479235 C74.1215049,9.98395957 74.3028786,10.4915403 74.3389862,11.2175346 L76.7917535,11.097561 C76.873716,9.78092727 76.5508491,8.76884201 75.8231526,8.06130521 C75.0954562,7.3537684 74.0217345,7 72.6019876,7 C71.6577219,7 70.8493865,7.1507361 70.1769813,7.45220831 C69.504576,7.75368051 68.9569835,8.19973632 68.5342036,8.79037574 C68.1114236,9.38101516 67.86391,10.0454845 67.7916628,10.7837838 C67.7296505,11.4174907 67.8140117,12.0096682 68.0447464,12.5603164 C68.275481,13.1109646 68.6153808,13.5554823 69.0644457,13.8938695 C69.5135105,14.2322566 70.2429058,14.5460338 71.2526315,14.8352011 C72.3792893,15.1612832 73.0865257,15.3935399 73.3743408,15.531971 C73.6621558,15.6704021 73.8691933,15.8472863 73.9954534,16.0626236 C74.1217135,16.2779609 74.1697921,16.5394419 74.1396891,16.8470666 C74.0885139,17.3700286 73.8346641,17.8083938 73.3781397,18.1621622 C72.9216153,18.5159306 72.3250226,18.6928148 71.5883614,18.6928148 C70.1016453,18.6928148 69.3089384,17.8283894 69.2102406,16.0995386 L66.8041992,16.3579433 C66.8362087,19.4526478 68.3322327,21 71.2922711,21 Z M82.3120518,21 L83.3204429,9.36834925 L86.5988782,9.36834925 L86.8041992,7 L78.0095202,7 L77.8041992,9.36834925 L81.0918436,9.36834925 L80.0834525,21 L82.3120518,21 Z M91.6795515,21 C93.2911922,21 94.6180015,20.4366755 95.6599794,19.3100264 C96.8460569,18.0356201 97.5420279,16.2656113 97.7478924,14 C97.9515192,11.759015 97.6028526,10.032102 96.7018927,8.81926121 C95.8009329,7.6064204 94.5477439,7 92.9423258,7 C91.8347117,7 90.8687796,7.25549692 90.0445294,7.76649077 C89.2202792,8.27748461 88.5196198,9.05474934 87.9425514,10.098285 C87.365483,11.1418206 87.0036656,12.4700967 86.857099,14.0831135 C86.6551505,16.3056288 87.0314162,18.0540897 87.9858961,19.328496 C88.8242473,20.442832 90.0554658,21 91.6795515,21 Z M91.7241108,19 C90.8830623,19 90.2119189,18.5825083 89.7106806,17.7475248 C89.2094423,16.9125413 89.026181,15.660066 89.1608967,13.990099 C89.2982748,12.2871287 89.6751248,11.029703 90.2914465,10.2178218 C90.9077683,9.40594059 91.6542221,9 92.5308078,9 C93.4073936,9 94.0841772,9.40264026 94.5611587,10.2079208 C95.0381402,11.0132013 95.2087406,12.2574257 95.0729599,13.9405941 C94.9345169,15.6567657 94.5535075,16.9290429 93.9299316,17.7574257 C93.3063558,18.5858086 92.5710822,19 91.7241108,19 Z M100.831613,21 L101.623157,11.8703956 L105.289176,21 L107.536377,21 L108.750188,7 L106.668764,7 L105.858177,16.3492497 L102.137522,7 L99.9639998,7 L98.7501884,21 L100.831613,21 Z M118,21 L118.216895,18.6412005 L111.653081,18.6412005 L112.003449,14.8308322 L117.903068,14.8308322 L118.119962,12.4720327 L112.220344,12.4720327 L112.505732,9.36834925 L118.854659,9.36834925 L119.072432,7 L110.35975,7 L109.072432,21 L118,21 Z" id="MegSpot备份" fill="#FFFFFF" fill-rule="nonzero"></path>
                <g id="编组-3">
                    <polygon id="路径-3备份-7" fill-opacity="0.95" fill="#00FCC6" transform="translate(9.087216, 8.622746) rotate(5.000000) translate(-9.087216, -8.622746) " points="0.66986507 0.842219576 17.5010769 0.849200622 17.5045674 9.30439803 9.08896152 9.30090751 9.09189356 16.4032733 0.676287632 16.3997828"></polygon>
                    <polygon id="路径-3备份-6" fill="#338FFF" transform="translate(11.781421, 19.616766) rotate(-4.000000) translate(-11.781421, -19.616766) " points="3.70573819 11.8414615 19.8637362 11.8345414 19.8601314 20.2897208 12.1177573 20.2930366 12.1147293 27.3953873 3.69910528 27.3989915"></polygon>
                    <path d="M8.4,12.1333333 L8.01192868,16.8 L2.993,16.3383333 L2.8,12.4436568 L8.4,12.1333333 Z" id="形状结合" fill="#1067D1"></path>
                </g>
            </g>
        </g>
    </g>
</svg>