<svg t="1635328842222" class="icon" viewBox="0 0 1024 1024" version="1.1" xmlns="http://www.w3.org/2000/svg" p-id="1359" width="200" height="200"><path d="M146.176 776.64l-5.333333 102.378667 94.784-10.816 398.357333-398.336-90.517333-90.517334L146.176 776.64z m321.856-472.704l226.282667 226.282667-419.413334 419.413333-224.533333 25.578667 12.288-235.733334 420.48-420.458666-75.434667-75.413334 60.330667-60.352 45.269333 45.248 135.786667-135.786666c74.922667-74.922667 196.608-74.88 271.509333 0.021333 74.965333 74.986667 74.965333 196.565333 0.021334 271.509333l-135.786667 135.786667 45.226667 45.269333-60.330667 60.330667L468.053333 303.936z m392.256-0.042667a106.666667 106.666667 0 0 0-150.848-150.826666l-135.808 135.786666 150.848 150.826667 135.808-135.786667z" p-id="1360"></path></svg>