<?xml version="1.0" encoding="UTF-8"?>
<svg width="20px" height="21px" viewBox="0 0 20 21" version="1.1" xmlns="http://www.w3.org/2000/svg" xmlns:xlink="http://www.w3.org/1999/xlink">
    <g id="页面-1" stroke="none" stroke-width="1" fill="none" fill-rule="evenodd">
        <g id="对比" transform="translate(-1102.000000, -70.000000)" fill-rule="nonzero">
            <g id="旋转" transform="translate(1112.000000, 80.500000) scale(-1, 1) translate(-1112.000000, -80.500000) translate(1102.000000, 70.000000)">
                <rect id="矩形" fill="#000000" opacity="0" x="0" y="0.5" width="20" height="20"></rect>
                <path d="M14,7 C14.5128358,7 14.9355072,7.38604019 14.9932723,7.88337887 L15,8 L15,18 C15,18.5128358 14.6139598,18.9355072 14.1166211,18.9932723 L14,19 L3,19 C2.48716416,19 2.06449284,18.6139598 2.00672773,18.1166211 L2,18 L2,8 C2,7.48716416 2.38604019,7.06449284 2.88337887,7.00672773 L3,7 L14,7 Z M13.5,8.5 L3.5,8.5 L3.5,17.5 L13.5,17.5 L13.5,8.5 Z M10.8944161,1.40993555 C10.9249668,1.43494989 10.9474297,1.4684476 10.958974,1.50620729 L11.208,2.32467565 L11.2320916,2.32259947 C11.2514272,2.32008689 11.2712903,2.31757514 11.2916716,2.31507183 C12.3963543,2.17938993 13.604385,2.22999286 14.764249,2.60669447 C16.9527057,3.31746334 18.4162038,5.04236495 18.7451301,7.91467034 C18.7922564,8.32619433 18.4968536,8.69800382 18.0853297,8.74513009 C17.6738057,8.79225636 17.3019962,8.49685364 17.2548699,8.08532966 C16.9940272,5.80755508 15.940495,4.56584567 14.3009026,4.03333744 C13.4414961,3.75421866 12.5120539,3.69925464 11.6549244,3.78390033 L11.9099402,4.6166776 C11.9422347,4.72230811 11.8827841,4.8341184 11.7771536,4.86641289 C11.7393939,4.87795719 11.699062,4.87806627 11.6612404,4.8667264 L8.85290455,4.0247159 C8.7471009,3.99299327 8.68704636,3.8815062 8.71876899,3.77570255 C8.72635242,3.75040973 8.73886928,3.72686895 8.75559737,3.70643844 L10.612967,1.43797863 C10.6829431,1.35251473 10.8089522,1.33995941 10.8944161,1.40993555 Z" id="形状结合" fill="currentColor"></path>
            </g>
        </g>
    </g>
</svg>