<?xml version="1.0" standalone="no"?><!DOCTYPE svg PUBLIC "-//W3C//DTD SVG 1.1//EN" "http://www.w3.org/Graphics/SVG/1.1/DTD/svg11.dtd"><svg t="1633936020296" class="icon" viewBox="0 0 1024 1024" version="1.1" xmlns="http://www.w3.org/2000/svg" p-id="6295" xmlns:xlink="http://www.w3.org/1999/xlink" width="200" height="200"><defs><style type="text/css"></style></defs><path d="M886.4 265.6l-128-128c-6.4-6.4-12.8-9.6-22.4-9.6H160c-19.2 0-32 12.8-32 32v704c0 19.2 12.8 32 32 32h704c19.2 0 32-12.8 32-32V288c0-9.6-3.2-16-9.6-22.4zM352 192h320v256H352V192z m480 640H192V192h96v288c0 19.2 12.8 32 32 32h384c19.2 0 32-12.8 32-32V204.8l96 96V832z" p-id="6296"></path><path d="M576 256c-19.2 0-32 12.8-32 32v64c0 19.2 12.8 32 32 32s32-12.8 32-32V288c0-19.2-12.8-32-32-32z" p-id="6297"></path></svg>