<svg t="1652415174342" class="icon" viewBox="0 0 1024 1024" version="1.1" xmlns="http://www.w3.org/2000/svg" p-id="6241" width="200" height="200"><path d="M785.07008 238.92992V204.8a34.24256 34.24256 0 0 0-34.14016-34.12992H614.4A34.24256 34.24256 0 0 0 580.27008 204.8v34.12992H102.4V307.2h477.87008v34.12992c0 18.76992 15.36 34.12992 34.12992 34.12992h136.52992c18.76992 0 34.14016-15.36 34.14016-34.12992V307.2H921.6v-68.27008H785.07008zM716.8 307.2h-68.27008v-68.27008H716.8V307.2zM443.72992 477.87008v-34.12992C443.72992 424.96 428.36992 409.6 409.6 409.6H273.07008a34.24256 34.24256 0 0 0-34.14016 34.12992v34.12992H102.4v68.27008h136.52992v34.11968a34.24256 34.24256 0 0 0 34.14016 34.14016H409.6c18.76992 0 34.12992-15.36 34.12992-34.14016v-34.11968H921.6v-68.27008H443.72992z m-68.25984 68.27008H307.2v-68.27008h68.27008v68.27008zM716.8 716.8v-34.14016a34.23232 34.23232 0 0 0-34.12992-34.11968H546.12992A34.23232 34.23232 0 0 0 512 682.65984V716.8H102.4v68.25984h409.6V819.2a34.2528 34.2528 0 0 0 34.12992 34.14016h136.54016A34.2528 34.2528 0 0 0 716.8 819.2v-34.14016h204.8V716.8H716.8z m-68.27008 68.25984h-68.25984V716.8h68.25984v68.25984z" p-id="6242"></path></svg>