<svg t="1657606217506" class="icon" viewBox="0 0 1024 1024" version="1.1" xmlns="http://www.w3.org/2000/svg" p-id="2269" width="200" height="200"><path d="M775.902994 648.018883c42.445718 0 81.508385 17.571191 109.769033 45.7643l0 0c28.170596 27.92398 45.650713 67.053162 45.650713 109.993137 0 85.519746-70.28067 155.711388-155.419745 155.711388-85.901439 0-155.734924-70.191642-155.734924-155.711388 0-17.615193 2.755764-34.33397 8.359388-50.380434L462.776414 653.711536c-2.174526 2.868327-5.132904 5.960759-7.597025 8.604982l-2.39863 1.74883c-38.053688 37.425378-90.282213 60.285015-147.934261 60.285015-116.570949 0-212.254172-95.470375-212.254172-212.063837 0-116.582205 95.683223-212.276684 212.254172-212.276684 58.414411 0 111.51684 23.329335 149.929708 62.257949l0.404206 0 0 0c2.465145 2.644223 5.423523 5.288446 7.597025 7.91118l165.752068-98.541317c-5.603625-16.046464-8.359388-33.437553-8.359388-51.030234 0-85.565794 70.28067-155.7339 155.734924-155.7339 85.139076 0 155.419745 70.393233 155.419745 155.7339 0 86.237083-70.28067 155.509796-155.419745 155.509796-43.231617 0-82.047668-17.59268-110.284779-44.86686l-1.007957-1.546216-164.765601 98.541317c11.227716 25.974581 17.188474 54.346769 17.188474 84.041068 0 29.694299-5.960759 58.06751-17.188474 83.816964l164.765601 98.754165 1.007957-1.075495 0 0L666.022421 693.333952C694.417121 665.590074 732.896504 648.018883 775.902994 648.018883L775.902994 648.018883zM837.37709 742.145657 837.37709 742.145657c-15.82236-15.374152-37.605479-25.279756-61.473073-25.279756-24.181749 0-45.87584 9.905604-61.473073 25.279756l0 0.224104c-16.181541 15.82236-25.414833 37.381375-25.414833 61.406558 0 48.13837 38.861076 87.088474 86.887906 87.088474 47.847751 0 86.573751-38.950104 86.573751-87.088474 0-24.025183-9.457396-45.584198-25.099654-61.406558L837.378114 742.145657 837.37709 742.145657zM406.144602 410.451186 406.144602 410.451186c-25.604144-25.750477-61.697177-41.370223-101.298104-41.370223-79.065753 0-143.519718 63.804165-143.519718 143.206586 0 78.975702 64.453964 143.217842 143.519718 143.217842 39.040155 0 74.248028-15.418154 99.863429-40.47483l1.434675-1.523703c26.176173-25.560142 42.222637-62.269205 42.222637-101.219309 0-39.802518-16.046464-75.234495-42.222637-101.633748L406.144602 410.451186 406.144602 410.451186zM775.902994 133.720537 775.902994 133.720537c-48.027853 0-86.887906 39.375799-86.887906 86.887906 0 16.942881 4.438079 32.562627 12.662391 46.211485l0.560772 0.425695c2.868327 4.841262 6.588045 9.255805 10.644431 13.424754l1.547239 1.322112c15.597233 15.844873 37.291324 25.727964 61.473073 25.727964 47.847751 0 86.573751-38.950104 86.573751-87.110987C862.476745 172.671665 823.750745 133.720537 775.902994 133.720537L775.902994 133.720537z" p-id="2270"></path></svg>