<svg t="1630640990162" class="icon" viewBox="0 0 1024 1024" version="1.1" xmlns="http://www.w3.org/2000/svg" p-id="4679" width="200" height="200">
<path d="M335.102995 512.001536c0-73.727779 45.567863-118.015646 105.215684-118.015646a90.11173 90.11173 0 0 1 67.327798 28.671914l-19.455942 22.783932a61.183816 61.183816 0 0 0-46.59186-20.22394c-41.983874 0-69.88779 32.511902-69.88779 85.759743s25.599923 86.52774 71.423786 86.52774a56.063832 56.063832 0 0 0 35.583893-11.007966v-52.479843h-44.799866v-29.183913h76.79977v98.047706a102.399693 102.399693 0 0 1-71.423786 25.599924c-60.415819 0.767998-104.191687-41.727875-104.191687-116.479651zM563.19831 399.105875h35.583894v226.047322H563.19831zM657.662027 399.105875h133.887598v29.695911h-98.303705v69.119792h83.45575v29.695911h-83.45575v97.279708h-35.583893z" fill="currentColor" p-id="4681"></path>
<path d="M883.19735 1024h-639.99808A141.055577 141.055577 0 0 1 102.399693 883.200422v-742.397772A141.055577 141.055577 0 0 1 243.19927 0.003072h516.350451a89.087733 89.087733 0 0 1 63.231811 25.599923l189.695431 189.695431A38.399885 38.399885 0 0 1 1023.996928 243.202342v639.99808a141.055577 141.055577 0 0 1-140.799578 140.799578zM243.19927 76.802842A63.999808 63.999808 0 0 0 179.199462 140.80265v742.397772A63.999808 63.999808 0 0 0 243.19927 947.20023h639.99808a63.999808 63.999808 0 0 0 63.999808-63.999808V259.074295l-179.199462-179.199463a12.799962 12.799962 0 0 0-8.447975-3.07199z" fill="currentColor" p-id="4682"></path></svg>