<?xml version="1.0" encoding="UTF-8"?>
<svg width="20px" height="21px" viewBox="0 0 20 21" version="1.1" xmlns="http://www.w3.org/2000/svg" xmlns:xlink="http://www.w3.org/1999/xlink">
    <g id="页面-1" stroke="none" stroke-width="1" fill="none" fill-rule="evenodd">
        <g id="对比" transform="translate(-1175.000000, -70.000000)" fill-rule="nonzero">
            <g id="垂直翻转" transform="translate(1185.000000, 80.000000) rotate(90.000000) translate(-1185.000000, -80.000000) translate(1175.000000, 70.000000)">
                <rect id="矩形" fill="#000000" opacity="0" x="0" y="0" width="20" height="20"></rect>
                <path d="M11.1984383,9.62182682 L16.8381635,5.50899795 C17.0612787,5.34628888 17.374051,5.39525769 17.5367601,5.61837284 C17.5991546,5.70393151 17.6327744,5.80709049 17.6327744,5.91298367 L17.6327744,13.9697339 C17.6327744,14.2458763 17.4089167,14.4697339 17.1327744,14.4697339 C17.0302672,14.4697339 16.930237,14.4382276 16.8462327,14.3794825 L11.2065075,10.4355611 C10.9802096,10.2773085 10.925048,9.96556878 11.0833006,9.7392709 C11.114934,9.69403581 11.1538395,9.65435103 11.1984383,9.62182682 Z" id="路径-2" fill="currentColor"></path>
                <path d="M8.93861554,5.61837284 C9.0010101,5.70393151 9.03462982,5.80709049 9.03462982,5.91298367 L9.03462982,13.9697339 C9.03462982,14.2458763 8.8107722,14.4697339 8.53462982,14.4697339 C8.4321227,14.4697339 8.33209247,14.4382276 8.24808818,14.3794825 L2.608363,10.4355611 C2.38206511,10.2773085 2.32690349,9.96556878 2.48515608,9.7392709 C2.51678946,9.69403581 2.55569493,9.65435103 2.60029381,9.62182682 L8.24001899,5.50899795 C8.46313414,5.34628888 8.77590647,5.39525769 8.93861554,5.61837284 Z M7.53462982,7.87937708 L4.61562982,10.0083771 L7.53462982,12.0493771 L7.53462982,7.87937708 Z" id="路径-2备份" fill="currentColor" transform="translate(5.714746, 9.941341) scale(-1, 1) translate(-5.714746, -9.941341) "></path>
                <path d="M10.5346298,18.0691681 L10.5346298,16.0691681 L9.03462982,16.0691681 L9.03462982,18.0691681 L10.5346298,18.0691681 Z M10.5346298,14.0691681 L10.5346298,12.0691681 L9.03462982,12.0691681 L9.03462982,14.0691681 L10.5346298,14.0691681 Z M10.5346298,8.06916809 L10.5346298,6.06916809 L9.03462982,6.06916809 L9.03462982,8.06916809 L10.5346298,8.06916809 Z M10.5346298,4.06916809 L10.5346298,2.06916809 L9.03462982,2.06916809 L9.03462982,4.06916809 L10.5346298,4.06916809 Z" id="路径-3" fill="currentColor"></path>
            </g>
        </g>
    </g>
</svg>